<?xml version="1.0" encoding="UTF-8" standalone="no"?>
<!-- Created with Inkscape (http://www.inkscape.org/) -->

<svg
   xmlns:dc="http://purl.org/dc/elements/1.1/"
   xmlns:cc="http://creativecommons.org/ns#"
   xmlns:rdf="http://www.w3.org/1999/02/22-rdf-syntax-ns#"
   xmlns:svg="http://www.w3.org/2000/svg"
   xmlns="http://www.w3.org/2000/svg"
   xmlns:sodipodi="http://sodipodi.sourceforge.net/DTD/sodipodi-0.dtd"
   xmlns:inkscape="http://www.inkscape.org/namespaces/inkscape"
   width="33.072918mm"
   height="14.552083mm"
   viewBox="0 0 33.072918 14.552083"
   version="1.1"
   id="svg8"
   sodipodi:docname="lfa_lab_logo.svg"
   inkscape:version="0.92.1 r15371"
   inkscape:export-filename="/home/hannah/Dokumente/forschung/lfa/lfa_tool/doc/source/lfa_lab_logo.png"
   inkscape:export-xdpi="168.31177"
   inkscape:export-ydpi="168.31177">
  <defs
     id="defs2" />
  <sodipodi:namedview
     id="base"
     pagecolor="#ffffff"
     bordercolor="#666666"
     borderopacity="1.0"
     inkscape:pageopacity="1"
     inkscape:pageshadow="2"
     inkscape:zoom="5.83"
     inkscape:cx="69.386008"
     inkscape:cy="15.832593"
     inkscape:document-units="mm"
     inkscape:current-layer="layer1"
     showgrid="false"
     inkscape:snap-bbox="false"
     inkscape:object-nodes="true"
     inkscape:snap-smooth-nodes="true"
     inkscape:lockguides="true"
     inkscape:window-width="1079"
     inkscape:window-height="777"
     inkscape:window-x="501"
     inkscape:window-y="87"
     inkscape:window-maximized="0"
     inkscape:snap-text-baseline="true"
     fit-margin-top="0"
     fit-margin-left="0"
     fit-margin-right="0"
     fit-margin-bottom="0">
    <inkscape:grid
       type="xygrid"
       id="grid4485"
       originx="0"
       originy="-1.3996276e-05" />
  </sodipodi:namedview>
  <metadata
     id="metadata5">
    <rdf:RDF>
      <cc:Work
         rdf:about="">
        <dc:format>image/svg+xml</dc:format>
        <dc:type
           rdf:resource="http://purl.org/dc/dcmitype/StillImage" />
        <dc:title />
      </cc:Work>
    </rdf:RDF>
  </metadata>
  <g
     inkscape:label="Ebene 1"
     inkscape:groupmode="layer"
     id="layer1"
     transform="translate(0,-282.44791)">
    <path
       style="fill:#eeeeec;fill-rule:evenodd;stroke:none;stroke-width:0.26458332px;stroke-linecap:butt;stroke-linejoin:miter;stroke-opacity:1"
       d="m 12.7,283.77083 c 0,0 1.322916,-0.52916 1.852083,-0.52916 0.529166,0 1.852071,0.52916 1.852071,0.52916 -0.60747,0.31481 -1.145729,0.47143 -1.852071,0.52917 C 14.022916,284.3 12.7,283.77083 12.7,283.77083 Z"
       id="path4499"
       inkscape:connector-curvature="0"
       sodipodi:nodetypes="csccc" />
    <path
       style="fill:#eeeeec;fill-rule:evenodd;stroke:none;stroke-width:0.26458332px;stroke-linecap:butt;stroke-linejoin:miter;stroke-opacity:1"
       d="M 9.2604169,294.35417 12.7,288.53333 v -4.7625 c 0.79375,0.42279 1.322916,0.52917 1.852083,0.52917 0.519267,0.032 1.175399,-0.12458 1.852084,-0.52917 v 4.7625 l 3.439584,5.82084 c 0,0 -2.645834,1.32291 -5.291667,1.32291 -2.645834,0 -5.2916671,-1.32291 -5.2916671,-1.32291 z"
       id="path4497"
       inkscape:connector-curvature="0"
       sodipodi:nodetypes="cccccccsc" />
    <path
       style="fill:#f57900;fill-rule:evenodd;stroke:none;stroke-width:0.26458332px;stroke-linecap:butt;stroke-linejoin:miter;stroke-opacity:1"
       d="m 12.435417,289.06251 c 0.264583,0 0.79375,0 1.322916,0.26458 0.529166,0.26458 0.79375,0.26458 1.5875,-0.26458 0.79375,-0.52917 1.852083,1.05833 1.852083,1.05833 l 0.793751,1.32292 h -7.14375 l 1.5875,-2.38125"
       id="path20"
       inkscape:connector-curvature="0"
       sodipodi:nodetypes="czccccc" />
    <path
       style="fill:#fcaf3e;fill-opacity:1;fill-rule:evenodd;stroke:none;stroke-width:0.26458332px;stroke-linecap:butt;stroke-linejoin:miter;stroke-opacity:1"
       d="m 11.90625,289.85625 c 1.322917,-0.52917 1.852084,-0.52917 2.645834,0 0.79375,0.52917 2.116667,0.52917 2.38125,0.26458 0.264583,-0.26458 0.264583,0 0.264583,0 0,0 0,0 2.645834,4.23334 1.006873,1.611 -2.645834,2.11666 -5.291667,2.11666 -2.645834,0 -6.0854171,-0.52916 -5.2916671,-2.11666 z"
       id="path4491"
       inkscape:connector-curvature="0"
       sodipodi:nodetypes="csccsscc" />
    <path
       style="opacity:0.20899999;fill:#000000;fill-rule:evenodd;stroke:#000000;stroke-width:0.26499999;stroke-linecap:round;stroke-linejoin:round;stroke-miterlimit:4;stroke-dasharray:none;stroke-opacity:1"
       d="m 19.843751,294.35417 c 0.529166,0.79375 -1.5875,1.5875 -1.5875,1.5875 l -3.175001,-7.40834 -0.0099,-4.20129 c 0.740886,-0.18707 0.937972,-0.25549 1.332804,-0.56121 v 4.7625 c 0,0 -0.83931,-0.59748 3.439584,5.82084 z"
       id="path4493"
       inkscape:connector-curvature="0"
       sodipodi:nodetypes="scccccs" />
    <path
       style="fill:none;fill-rule:evenodd;stroke:#000000;stroke-width:0.35277778;stroke-linecap:round;stroke-linejoin:round;stroke-miterlimit:4;stroke-dasharray:none;stroke-opacity:1"
       d="m 12.7,283.77083 c 0.79375,-0.52916 1.322916,-0.52916 1.852083,-0.52916 0.529167,0 1.058334,0 1.852084,0.52916"
       id="path4489"
       inkscape:connector-curvature="0"
       sodipodi:nodetypes="csc" />
    <path
       style="opacity:0.50199998;fill:#ffffff;fill-rule:evenodd;stroke:none;stroke-width:0.26458332px;stroke-linecap:butt;stroke-linejoin:miter;stroke-opacity:1"
       d="m 9.5250003,295.4125 1.0583337,0.52917 3.704166,-7.40834 V 284.3 l -0.79375,-0.10638 v 4.33971 z"
       id="path4495"
       inkscape:connector-curvature="0"
       sodipodi:nodetypes="ccccccc" />
    <text
       xml:space="preserve"
       style="font-style:normal;font-variant:normal;font-weight:normal;font-stretch:normal;font-size:5.64444447px;line-height:125%;font-family:'URW Gothic L';-inkscape-font-specification:'URW Gothic L, Normal';font-variant-ligatures:normal;font-variant-caps:normal;font-variant-numeric:normal;font-feature-settings:normal;text-align:end;letter-spacing:0px;word-spacing:0px;writing-mode:lr-tb;text-anchor:end;fill:#000000;fill-opacity:1;stroke:none;stroke-width:0.26458332px;stroke-linecap:butt;stroke-linejoin:miter;stroke-opacity:1"
       x="11.90625"
       y="288.00418"
       id="text4522"><tspan
         sodipodi:role="line"
         id="tspan4520"
         x="11.90625"
         y="288.00418"
         style="font-style:normal;font-variant:normal;font-weight:normal;font-stretch:normal;font-size:6.3499999px;font-family:'URW Gothic L';-inkscape-font-specification:'URW Gothic L, Normal';font-variant-ligatures:normal;font-variant-caps:normal;font-variant-numeric:normal;font-feature-settings:normal;text-align:end;writing-mode:lr-tb;text-anchor:end;stroke-width:0.26458332px">LFA</tspan></text>
    <path
       style="fill:none;fill-rule:evenodd;stroke:#000000;stroke-width:0.35277778;stroke-linecap:round;stroke-linejoin:round;stroke-miterlimit:4;stroke-dasharray:none;stroke-opacity:1"
       d="M 9.2604169,294.35417 12.7,288.53333 v -4.7625 C 13.49375,284.3 14.022916,284.3 14.552083,284.3 c 0.529166,0 1.058334,0 1.852084,-0.52917 v 4.7625 l 3.439584,5.82084 c 0.924958,1.56531 -2.645834,2.11666 -5.291667,2.11666 -2.645834,0 -6.2271098,-0.55759 -5.2916671,-2.11666 z"
       id="path4487"
       inkscape:connector-curvature="0"
       sodipodi:nodetypes="scccccsss" />
    <path
       style="opacity:0.1;fill:#000000;fill-rule:evenodd;stroke:none;stroke-width:0.26458332px;stroke-linecap:butt;stroke-linejoin:miter;stroke-opacity:1"
       d="m 12.7,283.77083 1.166265,0.51718 1.479568,0.012 v -1.05833 l -2.07919,0.17678 z"
       id="path4524"
       inkscape:connector-curvature="0"
       sodipodi:nodetypes="cccccc" />
    <text
       xml:space="preserve"
       style="font-style:normal;font-weight:normal;font-size:2.9104166px;line-height:125%;font-family:Sans;text-align:center;letter-spacing:0px;word-spacing:0px;text-anchor:middle;fill:#000000;fill-opacity:1;stroke:none;stroke-width:0.26458332px;stroke-linecap:butt;stroke-linejoin:miter;stroke-opacity:1"
       x="20.372917"
       y="295.67709"
       id="text4495"><tspan
         sodipodi:role="line"
         id="tspan4493"
         x="20.372917"
         y="295.67709"
         style="font-style:normal;font-variant:normal;font-weight:normal;font-stretch:normal;font-size:6.3499999px;font-family:'URW Gothic L';-inkscape-font-specification:'URW Gothic L, Normal';font-variant-ligatures:normal;font-variant-caps:normal;font-variant-numeric:normal;font-feature-settings:normal;text-align:start;writing-mode:lr-tb;text-anchor:start;stroke-width:0.26458332px">Lab</tspan></text>
  </g>
</svg>
